<?xml version="1.0" encoding="utf-8"?>
<!-- Generator: Adobe Illustrator 24.3.0, SVG Export Plug-In . SVG Version: 6.00 Build 0)  -->
<svg version="1.1" id="Capa_1" xmlns="http://www.w3.org/2000/svg" xmlns:xlink="http://www.w3.org/1999/xlink" x="0px" y="0px"
	 viewBox="0 0 512 512" style="enable-background:new 0 0 512 512;" xml:space="preserve">
<style type="text/css">
	.st0{fill:#FFFFFF;stroke:#000000;stroke-miterlimit:10;}
</style>
<g>
	<g>
		<path class="st0" d="M512,0h-63.5L422,13.2L395.5,0H266.5l-30,15h-82.9l-30-15H0v245.5l15,30v82.9l-15,30V512h258.5l26.5-13.2
			l26.5,13.2H512V313.5L498.8,287l13.2-26.5V0z M482,253.5L465.2,287l16.8,33.5V482H318.5L285,465.2L251.5,482H30v-86.5l15-30v-97.1
			l-15-30V30h86.5l30,15h97.1l30-15h114.9L422,46.8L455.5,30H482V253.5z"/>
	</g>
</g>
<g>
	<g>
		<path class="st0" d="M383.2,75H250.8L437,261.2V128.8L383.2,75z M407,188.8L323.2,105h47.6l36.2,36.2V188.8z"/>
	</g>
</g>
<g>
	<g>
		<path class="st0" d="M75,250.8v132.4l53.8,53.8h132.4L75,250.8z M105,370.8v-47.6l83.8,83.8h-47.6L105,370.8z"/>
	</g>
</g>
<g>
	<g>
		<path class="st0" d="M118.6,70.2l-49,49L260.1,343l27.2,11.6l7.1,28.7l45.7,53.7H420l18.1-126.7L118.6,70.2z M394,407h-40.1
			l-32.1-37.7l-9-36.4l-34.5-14.7l-168-197.4l11-11l284.5,213.8L394,407z"/>
	</g>
</g>
</svg>
